<?xml version="1.0" encoding="UTF-8"?>
<svg width="64px" height="64px" viewBox="0 0 64 64" version="1.1" xmlns="http://www.w3.org/2000/svg" xmlns:xlink="http://www.w3.org/1999/xlink">
    <!-- Generator: Sketch 51.3 (57544) - http://www.bohemiancoding.com/sketch -->
    <title>favicon</title>
    <desc>Created with Sketch.</desc>
    <defs></defs>
    <g id="favicon" stroke="none" stroke-width="1" fill="none" fill-rule="evenodd">
        <path d="M11.8139535,64 L0,64 L0,2.7533531e-14 L11.8139535,2.7533531e-14 L11.8139535,11.1836694 C11.8139535,12.5873584 12.9518682,13.7252731 14.3555571,13.7252731 L49.6444429,13.7252731 C51.0481318,13.7252731 52.1860465,12.5873584 52.1860465,11.1836694 L52.1860465,2.7533531e-14 L64,2.7533531e-14 L64,64 L52.1860465,64 L52.1860465,53.5416036 C52.1860465,52.1379147 51.0481318,51 49.6444429,51 L14.3555571,51 C12.9518682,51 11.8139535,52.1379147 11.8139535,53.5416036 L11.8139535,64 Z M4.06600288,17.7337368 C3.46442192,17.7337368 2.97674419,18.2214145 2.97674419,18.8229955 L2.97674419,20.7382753 C2.97674419,21.3398563 3.46442192,21.827534 4.06600288,21.827534 L7.6718246,21.827534 C8.27340557,21.827534 8.7610833,21.3398563 8.7610833,20.7382753 L8.7610833,18.8229955 C8.7610833,18.2214145 8.27340557,17.7337368 7.6718246,17.7337368 L4.06600288,17.7337368 Z M4.06600288,9.67019667 C3.46442192,9.67019667 2.97674419,10.1578744 2.97674419,10.7594554 L2.97674419,12.6747352 C2.97674419,13.2763162 3.46442192,13.7639939 4.06600288,13.7639939 L7.6718246,13.7639939 C8.27340557,13.7639939 8.7610833,13.2763162 8.7610833,12.6747352 L8.7610833,10.7594554 C8.7610833,10.1578744 8.27340557,9.67019667 7.6718246,9.67019667 L4.06600288,9.67019667 Z M4.06600288,1.67019667 C3.46442192,1.67019667 2.97674419,2.1578744 2.97674419,2.75945537 L2.97674419,4.67473525 C2.97674419,5.27631622 3.46442192,5.76399395 4.06600288,5.76399395 L7.6718246,5.76399395 C8.27340557,5.76399395 8.7610833,5.27631622 8.7610833,4.67473525 L8.7610833,2.75945537 C8.7610833,2.1578744 8.27340557,1.67019667 7.6718246,1.67019667 L4.06600288,1.67019667 Z M4.06600288,49.7602229 C3.46442192,49.7602229 2.97674419,50.2479006 2.97674419,50.8494816 L2.97674419,52.7647615 C2.97674419,53.3663424 3.46442192,53.8540202 4.06600288,53.8540202 L7.6718246,53.8540202 C8.27340557,53.8540202 8.7610833,53.3663424 8.7610833,52.7647615 L8.7610833,50.8494816 C8.7610833,50.2479006 8.27340557,49.7602229 7.6718246,49.7602229 L4.06600288,49.7602229 Z M4.06600288,57.7602229 C3.46442192,57.7602229 2.97674419,58.2479006 2.97674419,58.8494816 L2.97674419,60.7647615 C2.97674419,61.3663424 3.46442192,61.8540202 4.06600288,61.8540202 L7.6718246,61.8540202 C8.27340557,61.8540202 8.7610833,61.3663424 8.7610833,60.7647615 L8.7610833,58.8494816 C8.7610833,58.2479006 8.27340557,57.7602229 7.6718246,57.7602229 L4.06600288,57.7602229 Z M4.06600288,25.7248515 C3.46442192,25.7248515 2.97674419,26.2125292 2.97674419,26.8141102 L2.97674419,28.7293901 C2.97674419,29.330971 3.46442192,29.8186488 4.06600288,29.8186488 L7.6718246,29.8186488 C8.27340557,29.8186488 8.7610833,29.330971 8.7610833,28.7293901 L8.7610833,26.8141102 C8.7610833,26.2125292 8.27340557,25.7248515 7.6718246,25.7248515 L4.06600288,25.7248515 Z M4.06600288,33.7159662 C3.46442192,33.7159662 2.97674419,34.2036439 2.97674419,34.8052249 L2.97674419,36.7205048 C2.97674419,37.3220858 3.46442192,37.8097635 4.06600288,37.8097635 L7.6718246,37.8097635 C8.27340557,37.8097635 8.7610833,37.3220858 8.7610833,36.7205048 L8.7610833,34.8052249 C8.7610833,34.2036439 8.27340557,33.7159662 7.6718246,33.7159662 L4.06600288,33.7159662 Z M4.06600288,41.8311354 C3.46442192,41.8311354 2.97674419,42.3188131 2.97674419,42.9203941 L2.97674419,44.835674 C2.97674419,45.4372549 3.46442192,45.9249327 4.06600288,45.9249327 L7.6718246,45.9249327 C8.27340557,45.9249327 8.7610833,45.4372549 8.7610833,44.835674 L8.7610833,42.9203941 C8.7610833,42.3188131 8.27340557,41.8311354 7.6718246,41.8311354 L4.06600288,41.8311354 Z M56.1990169,17.7337368 C55.597436,17.7337368 55.1097582,18.2214145 55.1097582,18.8229955 L55.1097582,20.7382753 C55.1097582,21.3398563 55.597436,21.827534 56.1990169,21.827534 L59.8048386,21.827534 C60.4064196,21.827534 60.8940973,21.3398563 60.8940973,20.7382753 L60.8940973,18.8229955 C60.8940973,18.2214145 60.4064196,17.7337368 59.8048386,17.7337368 L56.1990169,17.7337368 Z M56.1990169,9.67019667 C55.597436,9.67019667 55.1097582,10.1578744 55.1097582,10.7594554 L55.1097582,12.6747352 C55.1097582,13.2763162 55.597436,13.7639939 56.1990169,13.7639939 L59.8048386,13.7639939 C60.4064196,13.7639939 60.8940973,13.2763162 60.8940973,12.6747352 L60.8940973,10.7594554 C60.8940973,10.1578744 60.4064196,9.67019667 59.8048386,9.67019667 L56.1990169,9.67019667 Z M56.1990169,1.67019667 C55.597436,1.67019667 55.1097582,2.1578744 55.1097582,2.75945537 L55.1097582,4.67473525 C55.1097582,5.27631622 55.597436,5.76399395 56.1990169,5.76399395 L59.8048386,5.76399395 C60.4064196,5.76399395 60.8940973,5.27631622 60.8940973,4.67473525 L60.8940973,2.75945537 C60.8940973,2.1578744 60.4064196,1.67019667 59.8048386,1.67019667 L56.1990169,1.67019667 Z M56.1990169,49.7602229 C55.597436,49.7602229 55.1097582,50.2479006 55.1097582,50.8494816 L55.1097582,52.7647615 C55.1097582,53.3663424 55.597436,53.8540202 56.1990169,53.8540202 L59.8048386,53.8540202 C60.4064196,53.8540202 60.8940973,53.3663424 60.8940973,52.7647615 L60.8940973,50.8494816 C60.8940973,50.2479006 60.4064196,49.7602229 59.8048386,49.7602229 L56.1990169,49.7602229 Z M56.1990169,57.7602229 C55.597436,57.7602229 55.1097582,58.2479006 55.1097582,58.8494816 L55.1097582,60.7647615 C55.1097582,61.3663424 55.597436,61.8540202 56.1990169,61.8540202 L59.8048386,61.8540202 C60.4064196,61.8540202 60.8940973,61.3663424 60.8940973,60.7647615 L60.8940973,58.8494816 C60.8940973,58.2479006 60.4064196,57.7602229 59.8048386,57.7602229 L56.1990169,57.7602229 Z M56.1990169,25.7248515 C55.597436,25.7248515 55.1097582,26.2125292 55.1097582,26.8141102 L55.1097582,28.7293901 C55.1097582,29.330971 55.597436,29.8186488 56.1990169,29.8186488 L59.8048386,29.8186488 C60.4064196,29.8186488 60.8940973,29.330971 60.8940973,28.7293901 L60.8940973,26.8141102 C60.8940973,26.2125292 60.4064196,25.7248515 59.8048386,25.7248515 L56.1990169,25.7248515 Z M56.1990169,33.7159662 C55.597436,33.7159662 55.1097582,34.2036439 55.1097582,34.8052249 L55.1097582,36.7205048 C55.1097582,37.3220858 55.597436,37.8097635 56.1990169,37.8097635 L59.8048386,37.8097635 C60.4064196,37.8097635 60.8940973,37.3220858 60.8940973,36.7205048 L60.8940973,34.8052249 C60.8940973,34.2036439 60.4064196,33.7159662 59.8048386,33.7159662 L56.1990169,33.7159662 Z M56.1990169,41.8311354 C55.597436,41.8311354 55.1097582,42.3188131 55.1097582,42.9203941 L55.1097582,44.835674 C55.1097582,45.4372549 55.597436,45.9249327 56.1990169,45.9249327 L59.8048386,45.9249327 C60.4064196,45.9249327 60.8940973,45.4372549 60.8940973,44.835674 L60.8940973,42.9203941 C60.8940973,42.3188131 60.4064196,41.8311354 59.8048386,41.8311354 L56.1990169,41.8311354 Z M14.3555571,16 C12.9518682,16 11.8139535,17.1379147 11.8139535,18.5416036 L11.8139535,46.1836694 C11.8139535,47.5873584 12.9518682,48.7252731 14.3555571,48.7252731 L49.6444429,48.7252731 C51.0481318,48.7252731 52.1860465,47.5873584 52.1860465,46.1836694 L52.1860465,18.5416036 C52.1860465,17.1379147 51.0481318,16 49.6444429,16 L14.3555571,16 Z" id="Combined-Shape" fill="#161F22" fill-rule="nonzero"></path>
        <rect id="Rectangle-2" fill-opacity="0.4" fill="#DADEE0" fill-rule="nonzero" x="11.8139535" y="-19.1891074" width="40.372093" height="32.7252731" rx="2.54160363"></rect>
        <rect id="Rectangle-2" fill-opacity="0.4" fill="#DADEE0" fill-rule="nonzero" x="11.8139535" y="15.8108926" width="40.372093" height="32.7252731" rx="2.54160363"></rect>
        <rect id="Rectangle-2" fill-opacity="0.4" fill="#DADEE0" fill-rule="nonzero" x="11.8139535" y="50.8108926" width="40.372093" height="32.7252731" rx="2.54160363"></rect>
        <g id="Group-2" transform="translate(15.000000, 18.500000)" fill-rule="nonzero" stroke-width="3.75">
            <polyline id="Path-2" stroke="#5FD74C" points="0.856414243 4.66127734 4.50393182 8.30879492 11.9129757 0.899751084"></polyline>
            <g id="Group" transform="translate(1.500000, 16.250000)" stroke="#F34C71">
                <path d="M0.066761017,9.49954858 L8.7625629,0.589228997" id="Path-2"></path>
                <path d="M0.066761017,9.49954858 L8.7625629,0.589228997" id="Path-2" transform="translate(4.440142, 5.057923) scale(-1, 1) translate(-4.440142, -5.057923) "></path>
            </g>
        </g>
        <path d="M32,24.6807867 L47,24.6807867" id="Line" stroke="#A8B3B8" stroke-width="3" stroke-linecap="square" fill-rule="nonzero"></path>
        <path d="M32,40.25 L47,40.25" id="Line" stroke="#A8B3B8" stroke-width="3" stroke-linecap="square" fill-rule="nonzero"></path>
        <rect id="Rectangle-4" fill-opacity="0.2" fill="#DADEE0" fill-rule="nonzero" x="2.97674419" y="17.7337368" width="5.78433911" height="4.09379728" rx="1.0892587"></rect>
        <rect id="Rectangle-4" fill-opacity="0.2" fill="#DADEE0" fill-rule="nonzero" x="2.97674419" y="9.67019667" width="5.78433911" height="4.09379728" rx="1.0892587"></rect>
        <rect id="Rectangle-4" fill-opacity="0.2" fill="#DADEE0" fill-rule="nonzero" x="2.97674419" y="1.67019667" width="5.78433911" height="4.09379728" rx="1.0892587"></rect>
        <rect id="Rectangle-4" fill-opacity="0.2" fill="#DADEE0" fill-rule="nonzero" x="2.97674419" y="49.7602229" width="5.78433911" height="4.09379728" rx="1.0892587"></rect>
        <rect id="Rectangle-4" fill-opacity="0.2" fill="#DADEE0" fill-rule="nonzero" x="2.97674419" y="57.7602229" width="5.78433911" height="4.09379728" rx="1.0892587"></rect>
        <rect id="Rectangle-4" fill-opacity="0.2" fill="#DADEE0" fill-rule="nonzero" x="2.97674419" y="25.7248515" width="5.78433911" height="4.09379728" rx="1.0892587"></rect>
        <rect id="Rectangle-4" fill-opacity="0.2" fill="#DADEE0" fill-rule="nonzero" x="2.97674419" y="33.7159662" width="5.78433911" height="4.09379728" rx="1.0892587"></rect>
        <rect id="Rectangle-4" fill-opacity="0.2" fill="#DADEE0" fill-rule="nonzero" x="2.97674419" y="41.8311354" width="5.78433911" height="4.09379728" rx="1.0892587"></rect>
        <rect id="Rectangle-4" fill-opacity="0.2" fill="#DADEE0" fill-rule="nonzero" x="55.1097582" y="17.7337368" width="5.78433911" height="4.09379728" rx="1.0892587"></rect>
        <rect id="Rectangle-4" fill-opacity="0.2" fill="#DADEE0" fill-rule="nonzero" x="55.1097582" y="9.67019667" width="5.78433911" height="4.09379728" rx="1.0892587"></rect>
        <rect id="Rectangle-4" fill-opacity="0.2" fill="#DADEE0" fill-rule="nonzero" x="55.1097582" y="1.67019667" width="5.78433911" height="4.09379728" rx="1.0892587"></rect>
        <rect id="Rectangle-4" fill-opacity="0.2" fill="#DADEE0" fill-rule="nonzero" x="55.1097582" y="49.7602229" width="5.78433911" height="4.09379728" rx="1.0892587"></rect>
        <rect id="Rectangle-4" fill-opacity="0.2" fill="#DADEE0" fill-rule="nonzero" x="55.1097582" y="57.7602229" width="5.78433911" height="4.09379728" rx="1.0892587"></rect>
        <rect id="Rectangle-4" fill-opacity="0.2" fill="#DADEE0" fill-rule="nonzero" x="55.1097582" y="25.7248515" width="5.78433911" height="4.09379728" rx="1.0892587"></rect>
        <rect id="Rectangle-4" fill-opacity="0.2" fill="#DADEE0" fill-rule="nonzero" x="55.1097582" y="33.7159662" width="5.78433911" height="4.09379728" rx="1.0892587"></rect>
        <rect id="Rectangle-4" fill-opacity="0.2" fill="#DADEE0" fill-rule="nonzero" x="55.1097582" y="41.8311354" width="5.78433911" height="4.09379728" rx="1.0892587"></rect>
    </g>
</svg>