<?xml version="1.0" encoding="UTF-8"?>
<svg width="359px" height="61px" viewBox="0 0 359 61" version="1.1" xmlns="http://www.w3.org/2000/svg" xmlns:xlink="http://www.w3.org/1999/xlink">
    <!-- Generator: Sketch 51.3 (57544) - http://www.bohemiancoding.com/sketch -->
    <title>Group 3</title>
    <desc>Created with Sketch.</desc>
    <defs></defs>
    <g id="Page-1" stroke="none" stroke-width="1" fill="none" fill-rule="evenodd">
        <g id="Group-3">
            <path d="M126.34223,1.01294311 L134.98223,1.01294311 L134.98223,59.8129431 L126.34223,59.8129431 L126.34223,1.01294311 Z M140.38223,1.01294311 L149.02223,1.01294311 L149.02223,51.8129431 L160.46223,51.8129431 L160.46223,59.8129431 L140.38223,59.8129431 L140.38223,1.01294311 Z M177.30223,59.8129431 L171.78223,22.8529431 L171.46223,20.3729431 L170.98223,20.3729431 L170.98223,59.8129431 L162.98223,59.8129431 L162.98223,1.01294311 L173.54223,1.01294311 L178.66223,27.8929431 L179.06223,31.0129431 L179.22223,31.0129431 L179.62223,27.8929431 L184.74223,1.01294311 L195.30223,1.01294311 L195.30223,59.8129431 L187.30223,59.8129431 L187.30223,20.3729431 L186.82223,20.3729431 L186.50223,22.8529431 L180.98223,59.8129431 L177.30223,59.8129431 Z M200.70223,59.8129431 L200.70223,1.01294311 L208.30223,1.01294311 C213.42223,1.01294311 217.42223,1.97294311 220.06223,4.45294311 C222.70223,6.93294311 224.06223,10.7729431 224.06223,16.6129431 C224.06223,19.4129431 223.82223,21.4929431 222.94223,23.4129431 C222.06223,25.3329431 220.70223,26.9329431 218.70223,28.7729431 C220.86223,29.9729431 222.46223,32.2129431 223.74223,35.9729431 C224.38223,37.8129431 224.70223,40.2129431 224.70223,43.1729431 C224.70223,47.5729431 223.90223,51.4929431 221.90223,54.5329431 C219.90223,57.5729431 216.46223,59.5729431 211.34223,59.8129431 L200.70223,59.8129431 Z M209.34223,25.2529431 C210.06223,25.2529431 211.74223,25.3329431 213.18223,24.3729431 C214.62223,23.4129431 215.74223,21.4929431 215.74223,17.4129431 C215.74223,13.3329431 214.62223,11.4129431 213.18223,10.4529431 C211.74223,9.49294311 210.06223,9.57294311 209.34223,9.57294311 L209.34223,25.2529431 Z M209.34223,51.2529431 C210.06223,51.2529431 211.74223,51.4129431 213.18223,50.3729431 C214.62223,49.3329431 215.74223,47.0129431 215.74223,42.2129431 C215.74223,37.4129431 214.62223,35.0929431 213.18223,34.0529431 C211.74223,33.0129431 210.06223,33.1729431 209.34223,33.1729431 L209.34223,51.2529431 Z M251.78223,1.01294311 L251.78223,47.7329431 C251.70223,50.1329431 251.22223,52.2929431 250.34223,54.1329431 C249.62223,55.7329431 248.50223,57.2529431 246.90223,58.4529431 C245.30223,59.7329431 243.14223,60.4529431 240.26223,60.4529431 C237.38223,60.4529431 235.14223,59.7329431 233.54223,58.4529431 C231.94223,57.2529431 230.90223,55.7329431 230.18223,54.1329431 C229.30223,52.2929431 228.82223,50.1329431 228.74223,47.7329431 L228.74223,1.01294311 L237.38223,1.01294311 L237.38223,47.7329431 C237.38223,49.4129431 237.78223,50.5329431 238.58223,51.4129431 C238.98223,51.8129431 239.54223,52.0529431 240.26223,52.0529431 C241.78223,52.0529431 242.50223,51.0929431 242.82223,49.8929431 C243.06223,49.3329431 243.14223,48.6129431 243.14223,47.7329431 L243.14223,1.01294311 L251.78223,1.01294311 Z M279.58223,39.6529431 L279.58223,47.7329431 C279.50223,50.1329431 279.02223,52.2929431 278.14223,54.1329431 C277.42223,55.7329431 276.30223,57.2529431 274.70223,58.4529431 C273.10223,59.7329431 270.94223,60.4529431 268.06223,60.4529431 C265.18223,60.4529431 262.94223,59.7329431 261.34223,58.4529431 C259.74223,57.2529431 258.70223,55.7329431 257.98223,54.1329431 C257.10223,52.2929431 256.62223,50.1329431 256.54223,47.7329431 L256.54223,13.0929431 C256.62223,10.7729431 257.10223,8.61294311 257.98223,6.77294311 C258.70223,5.17294311 259.74223,3.57294311 261.34223,2.37294311 C262.94223,1.17294311 265.18223,0.372943107 268.06223,0.372943107 C270.94223,0.372943107 273.10223,1.17294311 274.70223,2.37294311 C276.30223,3.57294311 277.42223,5.17294311 278.14223,6.77294311 C279.02223,8.61294311 279.50223,10.7729431 279.58223,13.0929431 L279.58223,21.1729431 L271.50223,21.1729431 L271.50223,13.0929431 C271.50223,11.4929431 271.10223,10.3729431 270.22223,9.41294311 C269.82223,9.01294311 269.10223,8.77294311 268.22223,8.77294311 C266.70223,8.77294311 265.98223,9.89294311 265.58223,10.9329431 C265.34223,11.5729431 265.26223,12.2929431 265.18223,13.0929431 L265.18223,47.7329431 C265.26223,49.4129431 265.74223,50.5329431 266.54223,51.4129431 C266.94223,51.8129431 267.50223,52.0529431 268.22223,52.0529431 C270.06223,52.0529431 270.78223,51.0929431 271.18223,49.8929431 C271.42223,49.3329431 271.50223,48.6129431 271.50223,47.7329431 L271.50223,39.6529431 L279.58223,39.6529431 Z M292.42223,1.01294311 L292.42223,21.5729431 L292.74223,21.5729431 L293.14223,20.6129431 L300.34223,1.01294311 L308.74223,1.01294311 L300.82223,20.3729431 L309.78223,59.8129431 L301.38223,59.8129431 L295.38223,34.2129431 L295.14223,33.0129431 L294.90223,33.0129431 L294.42223,34.2129431 L292.42223,39.0129431 L292.42223,59.8129431 L283.78223,59.8129431 L283.78223,1.01294311 L292.42223,1.01294311 Z M312.78223,1.01294311 L332.54223,1.01294311 L332.54223,9.89294311 L321.42223,9.89294311 L321.42223,25.3329431 L329.42223,25.3329431 L329.42223,34.7729431 L321.42223,34.7729431 L321.42223,50.9329431 L332.54223,50.9329431 L332.54223,59.8129431 L312.78223,59.8129431 L312.78223,1.01294311 Z M333.30223,9.89294311 L333.30223,1.01294311 L358.26223,1.01294311 L358.26223,9.89294311 L350.10223,9.89294311 L350.10223,59.8129431 L341.46223,59.8129431 L341.46223,9.89294311 L333.30223,9.89294311 Z" id="filmbucket" fill="#000000"></path>
            <g id="Group-2" transform="translate(0.151285, 0.812943)" fill-rule="nonzero">
                <path d="M79.3192833,59 L12.6097967,59 L12.6097967,56.1466526 C12.6097967,55.5450716 12.122119,55.0573939 11.520538,55.0573939 L5.37367625,55.0573939 C4.77209528,55.0573939 4.28441755,55.5450716 4.28441755,56.1466526 L4.28441755,59 L0,59 L0,0 L4.28441755,0 L4.28441755,2.16868381 C4.28441755,2.77026478 4.77209528,3.25794251 5.37367625,3.25794251 L11.520538,3.25794251 C12.122119,3.25794251 12.6097967,2.77026478 12.6097967,2.16868381 L12.6097967,0 L79.3192833,0 L79.3192833,2.16868381 C79.3192833,2.77026478 79.806961,3.25794251 80.408542,3.25794251 L86.5554037,3.25794251 C87.1569847,3.25794251 87.6446624,2.77026478 87.6446624,2.16868381 L87.6446624,0 L92.1149773,0 L92.1149773,59 L87.6446624,59 L87.6446624,56.1466526 C87.6446624,55.5450716 87.1569847,55.0573939 86.5554037,55.0573939 L80.408542,55.0573939 C79.806961,55.0573939 79.3192833,55.5450716 79.3192833,56.1466526 L79.3192833,59 Z M5.37367625,8.97049924 C4.77209528,8.97049924 4.28441755,9.45817697 4.28441755,10.0597579 L4.28441755,13.7723147 C4.28441755,14.3738956 4.77209528,14.8615734 5.37367625,14.8615734 L11.520538,14.8615734 C12.122119,14.8615734 12.6097967,14.3738956 12.6097967,13.7723147 L12.6097967,10.0597579 C12.6097967,9.45817697 12.122119,8.97049924 11.520538,8.97049924 L5.37367625,8.97049924 Z M5.37367625,20.4699082 C4.77209528,20.4699082 4.28441755,20.957586 4.28441755,21.5591669 L4.28441755,25.2717237 C4.28441755,25.8733046 4.77209528,26.3609824 5.37367625,26.3609824 L11.520538,26.3609824 C12.122119,26.3609824 12.6097967,25.8733046 12.6097967,25.2717237 L12.6097967,21.5591669 C12.6097967,20.957586 12.122119,20.4699082 11.520538,20.4699082 L5.37367625,20.4699082 Z M5.37367625,31.9693172 C4.77209528,31.9693172 4.28441755,32.456995 4.28441755,33.0585759 L4.28441755,36.7711327 C4.28441755,37.3727136 4.77209528,37.8603914 5.37367625,37.8603914 L11.520538,37.8603914 C12.122119,37.8603914 12.6097967,37.3727136 12.6097967,36.7711327 L12.6097967,33.0585759 C12.6097967,32.456995 12.122119,31.9693172 11.520538,31.9693172 L5.37367625,31.9693172 Z M5.37367625,43.6472436 C4.77209528,43.6472436 4.28441755,44.1349213 4.28441755,44.7365023 L4.28441755,48.449059 C4.28441755,49.05064 4.77209528,49.5383177 5.37367625,49.5383177 L11.520538,49.5383177 C12.122119,49.5383177 12.6097967,49.05064 12.6097967,48.449059 L12.6097967,44.7365023 C12.6097967,44.1349213 12.122119,43.6472436 11.520538,43.6472436 L5.37367625,43.6472436 Z M80.408542,8.97049924 C79.806961,8.97049924 79.3192833,9.45817697 79.3192833,10.0597579 L79.3192833,13.7723147 C79.3192833,14.3738956 79.806961,14.8615734 80.408542,14.8615734 L86.5554037,14.8615734 C87.1569847,14.8615734 87.6446624,14.3738956 87.6446624,13.7723147 L87.6446624,10.0597579 C87.6446624,9.45817697 87.1569847,8.97049924 86.5554037,8.97049924 L80.408542,8.97049924 Z M80.408542,20.4699082 C79.806961,20.4699082 79.3192833,20.957586 79.3192833,21.5591669 L79.3192833,25.2717237 C79.3192833,25.8733046 79.806961,26.3609824 80.408542,26.3609824 L86.5554037,26.3609824 C87.1569847,26.3609824 87.6446624,25.8733046 87.6446624,25.2717237 L87.6446624,21.5591669 C87.6446624,20.957586 87.1569847,20.4699082 86.5554037,20.4699082 L80.408542,20.4699082 Z M80.408542,31.9693172 C79.806961,31.9693172 79.3192833,32.456995 79.3192833,33.0585759 L79.3192833,36.7711327 C79.3192833,37.3727136 79.806961,37.8603914 80.408542,37.8603914 L86.5554037,37.8603914 C87.1569847,37.8603914 87.6446624,37.3727136 87.6446624,36.7711327 L87.6446624,33.0585759 C87.6446624,32.456995 87.1569847,31.9693172 86.5554037,31.9693172 L80.408542,31.9693172 Z M80.408542,43.6472436 C79.806961,43.6472436 79.3192833,44.1349213 79.3192833,44.7365023 L79.3192833,48.449059 C79.3192833,49.05064 79.806961,49.5383177 80.408542,49.5383177 L86.5554037,49.5383177 C87.1569847,49.5383177 87.6446624,49.05064 87.6446624,48.449059 L87.6446624,44.7365023 C87.6446624,44.1349213 87.1569847,43.6472436 86.5554037,43.6472436 L80.408542,43.6472436 Z M21.5537065,6.20347958 C20.1500176,6.20347958 19.0121029,7.34139428 19.0121029,8.74508321 L19.0121029,50.7543421 C19.0121029,52.158031 20.1500176,53.2959457 21.5537065,53.2959457 L74.5779123,53.2959457 C75.9816012,53.2959457 77.1195159,52.158031 77.1195159,50.7543421 L77.1195159,8.74508321 C77.1195159,7.34139428 75.9816012,6.20347958 74.5779123,6.20347958 L21.5537065,6.20347958 Z" id="Combined-Shape" fill="#000000"></path>
                <polyline id="Path-2" stroke="#B8E986" stroke-width="2.72314675" points="22.8128629 13.2848697 26.3463956 16.8184023 33.5239068 9.6408911"></polyline>
                <polyline id="Path-2" stroke="#B8E986" stroke-width="2.72314675" points="22.8128629 46.0047851 26.3463956 49.5383177 33.5239068 42.3608065"></polyline>
                <g id="Group" transform="translate(23.225416, 25.974281)" stroke="#D06471" stroke-width="2.72314675">
                    <path d="M0.0892586989,8.6580938 L8.51331677,0.0262216986" id="Path-2"></path>
                    <path d="M0.0892586989,8.6580938 L8.51331677,0.0262216986" id="Path-2" transform="translate(4.325972, 4.355269) scale(-1, 1) translate(-4.325972, -4.355269) "></path>
                </g>
                <path d="M38.0688351,14.1497731 L70.2912254,14.1497731" id="Line" stroke="#979797" stroke-width="1.81543116" stroke-linecap="square"></path>
                <path d="M38.0688351,30.3979576 L70.2912254,30.3979576" id="Line" stroke="#979797" stroke-width="1.81543116" stroke-linecap="square"></path>
                <path d="M38.0688351,45.9995621 L70.2912254,45.9995621" id="Line" stroke="#979797" stroke-width="1.81543116" stroke-linecap="square"></path>
            </g>
            <polygon id="Path" fill="#000000" fill-rule="nonzero" points="123.82223 9.89294311 111.90223 9.89294311 111.90223 25.3329431 119.90223 25.3329431 119.90223 34.2129431 111.90223 34.2129431 111.90223 59.8129431 103.26223 59.8129431 103.26223 1.01294311 123.82223 1.01294311"></polygon>
        </g>
    </g>
</svg>