<?xml version="1.0" encoding="UTF-8"?>
<svg width="360px" height="61px" viewBox="0 0 360 61" version="1.1" xmlns="http://www.w3.org/2000/svg" xmlns:xlink="http://www.w3.org/1999/xlink">
    <!-- Generator: Sketch 51.3 (57544) - http://www.bohemiancoding.com/sketch -->
    <title>logo</title>
    <desc>Created with Sketch.</desc>
    <defs></defs>
    <g id="logo" stroke="none" stroke-width="1" fill="none" fill-rule="evenodd">
        <path d="M127.34223,1.01294311 L135.98223,1.01294311 L135.98223,59.8129431 L127.34223,59.8129431 L127.34223,1.01294311 Z M141.38223,1.01294311 L150.02223,1.01294311 L150.02223,51.8129431 L161.46223,51.8129431 L161.46223,59.8129431 L141.38223,59.8129431 L141.38223,1.01294311 Z M178.30223,59.8129431 L172.78223,22.8529431 L172.46223,20.3729431 L171.98223,20.3729431 L171.98223,59.8129431 L163.98223,59.8129431 L163.98223,1.01294311 L174.54223,1.01294311 L179.66223,27.8929431 L180.06223,31.0129431 L180.22223,31.0129431 L180.62223,27.8929431 L185.74223,1.01294311 L196.30223,1.01294311 L196.30223,59.8129431 L188.30223,59.8129431 L188.30223,20.3729431 L187.82223,20.3729431 L187.50223,22.8529431 L181.98223,59.8129431 L178.30223,59.8129431 Z M201.70223,59.8129431 L201.70223,1.01294311 L209.30223,1.01294311 C214.42223,1.01294311 218.42223,1.97294311 221.06223,4.45294311 C223.70223,6.93294311 225.06223,10.7729431 225.06223,16.6129431 C225.06223,19.4129431 224.82223,21.4929431 223.94223,23.4129431 C223.06223,25.3329431 221.70223,26.9329431 219.70223,28.7729431 C221.86223,29.9729431 223.46223,32.2129431 224.74223,35.9729431 C225.38223,37.8129431 225.70223,40.2129431 225.70223,43.1729431 C225.70223,47.5729431 224.90223,51.4929431 222.90223,54.5329431 C220.90223,57.5729431 217.46223,59.5729431 212.34223,59.8129431 L201.70223,59.8129431 Z M210.34223,25.2529431 C211.06223,25.2529431 212.74223,25.3329431 214.18223,24.3729431 C215.62223,23.4129431 216.74223,21.4929431 216.74223,17.4129431 C216.74223,13.3329431 215.62223,11.4129431 214.18223,10.4529431 C212.74223,9.49294311 211.06223,9.57294311 210.34223,9.57294311 L210.34223,25.2529431 Z M210.34223,51.2529431 C211.06223,51.2529431 212.74223,51.4129431 214.18223,50.3729431 C215.62223,49.3329431 216.74223,47.0129431 216.74223,42.2129431 C216.74223,37.4129431 215.62223,35.0929431 214.18223,34.0529431 C212.74223,33.0129431 211.06223,33.1729431 210.34223,33.1729431 L210.34223,51.2529431 Z M252.78223,1.01294311 L252.78223,47.7329431 C252.70223,50.1329431 252.22223,52.2929431 251.34223,54.1329431 C250.62223,55.7329431 249.50223,57.2529431 247.90223,58.4529431 C246.30223,59.7329431 244.14223,60.4529431 241.26223,60.4529431 C238.38223,60.4529431 236.14223,59.7329431 234.54223,58.4529431 C232.94223,57.2529431 231.90223,55.7329431 231.18223,54.1329431 C230.30223,52.2929431 229.82223,50.1329431 229.74223,47.7329431 L229.74223,1.01294311 L238.38223,1.01294311 L238.38223,47.7329431 C238.38223,49.4129431 238.78223,50.5329431 239.58223,51.4129431 C239.98223,51.8129431 240.54223,52.0529431 241.26223,52.0529431 C242.78223,52.0529431 243.50223,51.0929431 243.82223,49.8929431 C244.06223,49.3329431 244.14223,48.6129431 244.14223,47.7329431 L244.14223,1.01294311 L252.78223,1.01294311 Z M280.58223,39.6529431 L280.58223,47.7329431 C280.50223,50.1329431 280.02223,52.2929431 279.14223,54.1329431 C278.42223,55.7329431 277.30223,57.2529431 275.70223,58.4529431 C274.10223,59.7329431 271.94223,60.4529431 269.06223,60.4529431 C266.18223,60.4529431 263.94223,59.7329431 262.34223,58.4529431 C260.74223,57.2529431 259.70223,55.7329431 258.98223,54.1329431 C258.10223,52.2929431 257.62223,50.1329431 257.54223,47.7329431 L257.54223,13.0929431 C257.62223,10.7729431 258.10223,8.61294311 258.98223,6.77294311 C259.70223,5.17294311 260.74223,3.57294311 262.34223,2.37294311 C263.94223,1.17294311 266.18223,0.372943107 269.06223,0.372943107 C271.94223,0.372943107 274.10223,1.17294311 275.70223,2.37294311 C277.30223,3.57294311 278.42223,5.17294311 279.14223,6.77294311 C280.02223,8.61294311 280.50223,10.7729431 280.58223,13.0929431 L280.58223,21.1729431 L272.50223,21.1729431 L272.50223,13.0929431 C272.50223,11.4929431 272.10223,10.3729431 271.22223,9.41294311 C270.82223,9.01294311 270.10223,8.77294311 269.22223,8.77294311 C267.70223,8.77294311 266.98223,9.89294311 266.58223,10.9329431 C266.34223,11.5729431 266.26223,12.2929431 266.18223,13.0929431 L266.18223,47.7329431 C266.26223,49.4129431 266.74223,50.5329431 267.54223,51.4129431 C267.94223,51.8129431 268.50223,52.0529431 269.22223,52.0529431 C271.06223,52.0529431 271.78223,51.0929431 272.18223,49.8929431 C272.42223,49.3329431 272.50223,48.6129431 272.50223,47.7329431 L272.50223,39.6529431 L280.58223,39.6529431 Z M293.42223,1.01294311 L293.42223,21.5729431 L293.74223,21.5729431 L294.14223,20.6129431 L301.34223,1.01294311 L309.74223,1.01294311 L301.82223,20.3729431 L310.78223,59.8129431 L302.38223,59.8129431 L296.38223,34.2129431 L296.14223,33.0129431 L295.90223,33.0129431 L295.42223,34.2129431 L293.42223,39.0129431 L293.42223,59.8129431 L284.78223,59.8129431 L284.78223,1.01294311 L293.42223,1.01294311 Z M313.78223,1.01294311 L333.54223,1.01294311 L333.54223,9.89294311 L322.42223,9.89294311 L322.42223,25.3329431 L330.42223,25.3329431 L330.42223,34.7729431 L322.42223,34.7729431 L322.42223,50.9329431 L333.54223,50.9329431 L333.54223,59.8129431 L313.78223,59.8129431 L313.78223,1.01294311 Z M334.30223,9.89294311 L334.30223,1.01294311 L359.26223,1.01294311 L359.26223,9.89294311 L351.10223,9.89294311 L351.10223,59.8129431 L342.46223,59.8129431 L342.46223,9.89294311 L334.30223,9.89294311 Z M124.82223,9.89294311 L112.90223,9.89294311 L112.90223,25.3329431 L120.90223,25.3329431 L120.90223,34.2129431 L112.90223,34.2129431 L112.90223,59.8129431 L104.26223,59.8129431 L104.26223,1.01294311 L124.82223,1.01294311 L124.82223,9.89294311 Z" id="Combined-Shape" fill="#161F22"></path>
        <g id="Group-2" transform="translate(1.151285, 0.812943)" fill-rule="nonzero">
            <path d="M79.3192833,59 L12.6097967,59 L12.6097967,56.1466526 C12.6097967,55.5450716 12.122119,55.0573939 11.520538,55.0573939 L5.37367625,55.0573939 C4.77209528,55.0573939 4.28441755,55.5450716 4.28441755,56.1466526 L4.28441755,59 L0,59 L0,0 L4.28441755,0 L4.28441755,2.16868381 C4.28441755,2.77026478 4.77209528,3.25794251 5.37367625,3.25794251 L11.520538,3.25794251 C12.122119,3.25794251 12.6097967,2.77026478 12.6097967,2.16868381 L12.6097967,0 L79.3192833,0 L79.3192833,2.16868381 C79.3192833,2.77026478 79.806961,3.25794251 80.408542,3.25794251 L86.5554037,3.25794251 C87.1569847,3.25794251 87.6446624,2.77026478 87.6446624,2.16868381 L87.6446624,0 L92.1149773,0 L92.1149773,59 L87.6446624,59 L87.6446624,56.1466526 C87.6446624,55.5450716 87.1569847,55.0573939 86.5554037,55.0573939 L80.408542,55.0573939 C79.806961,55.0573939 79.3192833,55.5450716 79.3192833,56.1466526 L79.3192833,59 Z M5.37367625,8.97049924 C4.77209528,8.97049924 4.28441755,9.45817697 4.28441755,10.0597579 L4.28441755,13.7723147 C4.28441755,14.3738956 4.77209528,14.8615734 5.37367625,14.8615734 L11.520538,14.8615734 C12.122119,14.8615734 12.6097967,14.3738956 12.6097967,13.7723147 L12.6097967,10.0597579 C12.6097967,9.45817697 12.122119,8.97049924 11.520538,8.97049924 L5.37367625,8.97049924 Z M5.37367625,20.4699082 C4.77209528,20.4699082 4.28441755,20.957586 4.28441755,21.5591669 L4.28441755,25.2717237 C4.28441755,25.8733046 4.77209528,26.3609824 5.37367625,26.3609824 L11.520538,26.3609824 C12.122119,26.3609824 12.6097967,25.8733046 12.6097967,25.2717237 L12.6097967,21.5591669 C12.6097967,20.957586 12.122119,20.4699082 11.520538,20.4699082 L5.37367625,20.4699082 Z M5.37367625,31.9693172 C4.77209528,31.9693172 4.28441755,32.456995 4.28441755,33.0585759 L4.28441755,36.7711327 C4.28441755,37.3727136 4.77209528,37.8603914 5.37367625,37.8603914 L11.520538,37.8603914 C12.122119,37.8603914 12.6097967,37.3727136 12.6097967,36.7711327 L12.6097967,33.0585759 C12.6097967,32.456995 12.122119,31.9693172 11.520538,31.9693172 L5.37367625,31.9693172 Z M5.37367625,43.6472436 C4.77209528,43.6472436 4.28441755,44.1349213 4.28441755,44.7365023 L4.28441755,48.449059 C4.28441755,49.05064 4.77209528,49.5383177 5.37367625,49.5383177 L11.520538,49.5383177 C12.122119,49.5383177 12.6097967,49.05064 12.6097967,48.449059 L12.6097967,44.7365023 C12.6097967,44.1349213 12.122119,43.6472436 11.520538,43.6472436 L5.37367625,43.6472436 Z M80.408542,8.97049924 C79.806961,8.97049924 79.3192833,9.45817697 79.3192833,10.0597579 L79.3192833,13.7723147 C79.3192833,14.3738956 79.806961,14.8615734 80.408542,14.8615734 L86.5554037,14.8615734 C87.1569847,14.8615734 87.6446624,14.3738956 87.6446624,13.7723147 L87.6446624,10.0597579 C87.6446624,9.45817697 87.1569847,8.97049924 86.5554037,8.97049924 L80.408542,8.97049924 Z M80.408542,20.4699082 C79.806961,20.4699082 79.3192833,20.957586 79.3192833,21.5591669 L79.3192833,25.2717237 C79.3192833,25.8733046 79.806961,26.3609824 80.408542,26.3609824 L86.5554037,26.3609824 C87.1569847,26.3609824 87.6446624,25.8733046 87.6446624,25.2717237 L87.6446624,21.5591669 C87.6446624,20.957586 87.1569847,20.4699082 86.5554037,20.4699082 L80.408542,20.4699082 Z M80.408542,31.9693172 C79.806961,31.9693172 79.3192833,32.456995 79.3192833,33.0585759 L79.3192833,36.7711327 C79.3192833,37.3727136 79.806961,37.8603914 80.408542,37.8603914 L86.5554037,37.8603914 C87.1569847,37.8603914 87.6446624,37.3727136 87.6446624,36.7711327 L87.6446624,33.0585759 C87.6446624,32.456995 87.1569847,31.9693172 86.5554037,31.9693172 L80.408542,31.9693172 Z M80.408542,43.6472436 C79.806961,43.6472436 79.3192833,44.1349213 79.3192833,44.7365023 L79.3192833,48.449059 C79.3192833,49.05064 79.806961,49.5383177 80.408542,49.5383177 L86.5554037,49.5383177 C87.1569847,49.5383177 87.6446624,49.05064 87.6446624,48.449059 L87.6446624,44.7365023 C87.6446624,44.1349213 87.1569847,43.6472436 86.5554037,43.6472436 L80.408542,43.6472436 Z M21.5537065,6.20347958 C20.1500176,6.20347958 19.0121029,7.34139428 19.0121029,8.74508321 L19.0121029,50.7543421 C19.0121029,52.158031 20.1500176,53.2959457 21.5537065,53.2959457 L74.5779123,53.2959457 C75.9816012,53.2959457 77.1195159,52.158031 77.1195159,50.7543421 L77.1195159,8.74508321 C77.1195159,7.34139428 75.9816012,6.20347958 74.5779123,6.20347958 L21.5537065,6.20347958 Z" id="Combined-Shape" fill="#161F22"></path>
            <polyline id="Path-2" stroke="#5FD74C" stroke-width="3.5" points="22.8128629 13.2848697 26.3463956 16.8184023 33.5239068 9.6408911"></polyline>
            <polyline id="Path-2" stroke="#5FD74C" stroke-width="3.5" points="22.8128629 46.0047851 26.3463956 49.5383177 33.5239068 42.3608065"></polyline>
            <path d="M23.3146747,34.6323752 L31.7387328,26.0005031" id="Path-2" stroke="#F34C71" stroke-width="3.5"></path>
            <path d="M23.3146747,34.6323752 L31.7387328,26.0005031" id="Path-2" stroke="#F34C71" stroke-width="3.5" transform="translate(27.551388, 30.329550) scale(-1, 1) translate(-27.551388, -30.329550) "></path>
            <path d="M39.0688351,14.1497731 L71.2912254,14.1497731" id="Line" stroke="#A8B3B8" stroke-width="2.5" stroke-linecap="square"></path>
            <path d="M39.0688351,30.3979576 L71.2912254,30.3979576" id="Line" stroke="#A8B3B8" stroke-width="2.5" stroke-linecap="square"></path>
            <path d="M39.0688351,45.9995621 L71.2912254,45.9995621" id="Line" stroke="#A8B3B8" stroke-width="2.5" stroke-linecap="square"></path>
        </g>
    </g>
</svg>